<svg xmlns="http://www.w3.org/2000/svg" viewBox="0 0 64 64" role="img" aria-label="GastosHQ">
  <defs>
    <linearGradient id="walletBody" x1="0" y1="0" x2="64" y2="64" gradientUnits="userSpaceOnUse">
      <stop offset="0" stop-color="#0E9F76"/>
      <stop offset="1" stop-color="#A7E847"/>
    </linearGradient>
  </defs>
  <rect x="6" y="22" width="52" height="32" rx="6" fill="url(#walletBody)"/>
  <rect x="6" y="22" width="52" height="8" fill="#0D1B2A" fill-opacity="0.18"/>
  <rect x="44" y="34" width="10" height="8" rx="2" fill="#F59E0B"/>
  <circle cx="49" cy="38" r="1.4" fill="#0D1B2A"/>
  <path d="M18 6 h22 a3 3 0 0 1 3 3 v23 a1.2 1.2 0 0 1 -2 0.9 l-5 -4.2 l-3.3 3.3 a1.2 1.2 0 0 1 -1.7 0 l-2.7 -2.7 l-5 4.6 a1.2 1.2 0 0 1 -2 -0.9 V9 a3 3 0 0 1 3 -3 z" fill="#0E9F76"/>
  <text x="29" y="22" text-anchor="middle" font-family="Poppins, 'Helvetica Neue', Arial, sans-serif" font-weight="700" font-size="16" fill="#FFFFFF">₱</text>
</svg>
